<?xml version="1.0" standalone="no"?>
<!DOCTYPE svg PUBLIC "-//W3C//DTD SVG 20010904//EN"
 "http://www.w3.org/TR/2001/REC-SVG-20010904/DTD/svg10.dtd">
<svg version="1.0" xmlns="http://www.w3.org/2000/svg"
 width="700.000000pt" height="700.000000pt" viewBox="0 0 700.000000 700.000000"
 preserveAspectRatio="xMidYMid meet">
<metadata>
Created by potrace 1.11, written by Peter Selinger 2001-2013
</metadata>
<g transform="translate(0.000000,700.000000) scale(0.100000,-0.100000)"
fill="#000000" stroke="none">
<path d="M3417 6204 c-1 -1 -38 -5 -82 -8 -110 -9 -134 -13 -260 -43 -364 -85
-690 -288 -935 -583 -112 -134 -190 -266 -301 -505 -41 -89 -108 -349 -124
-481 -4 -33 -10 -68 -13 -79 -4 -11 -8 -850 -9 -1865 l-4 -1846 486 0 485 0 1
1771 c0 973 2 1786 4 1805 15 171 68 331 152 457 45 69 143 170 203 210 111
75 197 110 340 140 69 15 281 8 355 -11 319 -82 552 -356 612 -721 10 -55 10
-267 1 -335 -37 -279 -193 -518 -425 -651 -222 -128 -583 -132 -881 -11 l-52
22 2 -513 3 -512 105 -28 c58 -15 143 -34 190 -42 47 -9 97 -18 110 -20 45
-10 274 -12 340 -4 119 14 164 20 171 25 4 2 24 6 44 10 147 23 467 173 610
286 331 261 553 588 679 998 14 47 28 100 31 119 3 19 8 37 10 41 5 9 34 194
40 260 5 52 6 311 1 355 -14 130 -20 172 -37 260 -66 335 -206 628 -434 904
-26 32 -157 157 -220 212 -211 181 -560 330 -864 369 -78 10 -326 21 -334 14z"/>
</g>
</svg>
